# 3ds Max Wavefront OBJ Exporter v0.99 - (c)2007 guruware
# File Created: 26.05.2022 14:19:31

#
# object Box001
#

v  25.0000 -1.0000 0.5000
v  -25.0000 -1.0000 0.5000
v  -25.0000 -1.0000 -0.5000
v  25.0000 -1.0000 -0.5000
v  25.0000 0.0000 0.5000
v  25.0000 0.0000 -0.5000
v  -25.0000 0.0000 -0.5000
v  -25.0000 0.0000 0.5000
# 8 vertices

vn 0.0000 -1.0000 -0.0000
vn 0.0000 1.0000 -0.0000
vn 1.0000 0.0000 -0.0000
vn -0.0000 0.0000 -1.0000
vn -1.0000 0.0000 0.0000
vn 0.0000 0.0000 1.0000
# 6 vertex normals

vt 1.0252 0.0159 0.0000
vt 1.0252 24.9867 0.0000
vt 0.5258 24.9867 0.0000
vt 0.5258 0.0159 0.0000
vt 0.0193 0.0159 0.0000
vt 0.5187 0.0159 0.0000
vt 0.5187 24.9867 0.0000
vt 0.0193 24.9867 0.0000
vt 0.0193 24.9938 0.0000
vt 0.5187 24.9938 0.0000
vt 0.5187 25.4933 0.0000
vt 0.0193 25.4933 0.0000
vt 1.0323 0.0159 0.0000
vt 26.0031 0.0159 0.0000
vt 26.0031 0.5153 0.0000
vt 1.0323 0.5153 0.0000
vt 0.5258 24.9938 0.0000
vt 1.0252 24.9938 0.0000
vt 1.0252 25.4933 0.0000
vt 0.5258 25.4933 0.0000
vt 1.0323 0.5224 0.0000
vt 26.0031 0.5224 0.0000
vt 26.0031 1.0218 0.0000
vt 1.0323 1.0218 0.0000
# 24 texture coords

o Box001
g Box001
s 2
f 1/1/1 2/2/1 3/3/1 
f 3/3/1 4/4/1 1/1/1 
s 4
f 5/5/2 6/6/2 7/7/2 
f 7/7/2 8/8/2 5/5/2 
s 8
f 1/9/3 4/10/3 6/11/3 
f 6/11/3 5/12/3 1/9/3 
s 16
f 4/13/4 3/14/4 7/15/4 
f 7/15/4 6/16/4 4/13/4 
s 32
f 3/17/5 2/18/5 8/19/5 
f 8/19/5 7/20/5 3/17/5 
s 64
f 2/21/6 1/22/6 5/23/6 
f 5/23/6 8/24/6 2/21/6 
# 12 faces

