# 3ds Max Wavefront OBJ Exporter v0.99 - (c)2007 guruware
# File Created: 29.05.2022 23:25:26

#
# object Box024
#

v  -0.5632 0.0000 0.4085
v  -0.5632 0.0000 0.2931
v  -0.4368 0.0000 0.2931
v  -0.4368 0.0000 0.4085
v  -0.5632 1.5953 0.4085
v  -0.4368 1.5953 0.4085
v  -0.4368 1.5953 0.2931
v  -0.5632 1.5953 0.2931
v  -0.7534 1.3368 0.4839
v  -0.7534 1.4628 0.4839
v  -0.6261 1.4628 0.4839
v  -0.6261 1.3368 0.4839
v  -0.7534 1.3368 0.6187
v  -0.6261 1.3368 0.6187
v  -0.6261 1.4628 0.6187
v  -0.7534 1.4628 0.6187
v  -0.8538 1.2548 0.4095
v  -0.8538 1.5227 0.4095
v  -0.1413 1.5227 0.4095
v  -0.1413 1.2548 0.4095
v  -0.8538 1.2548 0.4839
v  -0.1413 1.2548 0.4839
v  -0.1413 1.5227 0.4839
v  -0.8538 1.5227 0.4839
v  -0.3625 1.3368 0.4839
v  -0.3625 1.4628 0.4839
v  -0.2352 1.4628 0.4839
v  -0.2352 1.3368 0.4839
v  -0.3625 1.3368 0.6187
v  -0.2352 1.3368 0.6187
v  -0.2352 1.4628 0.6187
v  -0.3625 1.4628 0.6187
# 32 vertices

vn 0.0000 -1.0000 -0.0000
vn 0.0000 1.0000 -0.0000
vn 0.0000 0.0000 1.0000
vn 1.0000 0.0000 -0.0000
vn 0.0000 0.0000 -1.0000
vn -1.0000 0.0000 -0.0000
vn 0.0000 -0.0000 1.0000
# 7 vertex normals

vt 0.2243 0.8411 0.0000
vt 0.2243 0.9768 0.0000
vt 0.0757 0.9768 0.0000
vt 0.0757 0.8411 0.0000
vt 0.0712 0.8178 0.0000
vt 0.2198 0.8178 0.0000
vt 0.2198 0.9535 0.0000
vt 0.0712 0.9535 0.0000
vt 0.0602 -2.9592 0.0000
vt 0.2765 -2.9592 0.0000
vt 0.2765 0.9930 0.0000
vt 0.0602 0.9930 0.0000
vt 0.0696 -2.9592 0.0000
vt 0.2671 -2.9592 0.0000
vt 0.2671 0.9930 0.0000
vt 0.0696 0.9930 0.0000
vt 0.8266 0.1789 0.0000
vt 0.8266 0.3689 0.0000
vt 0.6366 0.3689 0.0000
vt 0.6366 0.1789 0.0000
vt 0.6384 0.1789 0.0000
vt 0.8284 0.1789 0.0000
vt 0.8284 0.3689 0.0000
vt 0.6384 0.3689 0.0000
vt 0.6344 0.1802 0.0000
vt 0.8244 0.1802 0.0000
vt 0.8244 0.3702 0.0000
vt 0.6344 0.3702 0.0000
vt 0.6265 0.1658 0.0000
vt 0.8165 0.1658 0.0000
vt 0.8165 0.3558 0.0000
vt 0.6265 0.3558 0.0000
vt 0.6384 0.1750 0.0000
vt 0.8284 0.1750 0.0000
vt 0.8284 0.3650 0.0000
vt 0.6384 0.3650 0.0000
vt 0.6292 0.1802 0.0000
vt 0.8192 0.1802 0.0000
vt 0.8192 0.3702 0.0000
vt 0.6292 0.3702 0.0000
vt 0.8184 0.6677 0.0000
vt 0.8184 0.8586 0.0000
vt 0.6275 0.8586 0.0000
vt 0.6275 0.6677 0.0000
# 44 texture coords

o Box024
g Box024
s 2
f 1/1/1 2/2/1 3/3/1 
f 3/3/1 4/4/1 1/1/1 
s 4
f 5/5/2 6/6/2 7/7/2 
f 7/7/2 8/8/2 5/5/2 
s 8
f 1/9/3 4/10/3 6/11/3 
f 6/11/3 5/12/3 1/9/3 
s 16
f 4/13/4 3/14/4 7/15/4 
f 7/15/4 6/16/4 4/13/4 
s 32
f 3/9/5 2/10/5 8/11/5 
f 8/11/5 7/12/5 3/9/5 
s 64
f 2/13/6 1/14/6 5/15/6 
f 5/15/6 8/16/6 2/13/6 
s 2
f 9/17/5 10/18/5 11/19/5 
f 11/19/5 12/20/5 9/17/5 
s 4
f 13/21/7 14/22/7 15/23/7 
f 15/23/7 16/24/7 13/21/7 
s 8
f 9/25/1 12/26/1 14/27/1 
f 14/27/1 13/28/1 9/25/1 
s 16
f 12/29/4 11/30/4 15/31/4 
f 15/31/4 14/32/4 12/29/4 
s 32
f 11/33/2 10/34/2 16/35/2 
f 16/35/2 15/36/2 11/33/2 
s 64
f 10/37/6 9/38/6 13/39/6 
f 13/39/6 16/40/6 10/37/6 
s 2
f 17/41/5 18/42/5 19/43/5 
f 19/43/5 20/44/5 17/41/5 
s 4
f 21/44/7 22/41/7 23/42/7 
f 23/42/7 24/43/7 21/44/7 
s 8
f 17/44/1 20/41/1 22/42/1 
f 22/42/1 21/43/1 17/44/1 
s 16
f 20/44/4 19/41/4 23/42/4 
f 23/42/4 22/43/4 20/44/4 
s 32
f 19/44/2 18/41/2 24/42/2 
f 24/42/2 23/43/2 19/44/2 
s 64
f 18/44/6 17/41/6 21/42/6 
f 21/42/6 24/43/6 18/44/6 
s 2
f 25/17/5 26/18/5 27/19/5 
f 27/19/5 28/20/5 25/17/5 
s 4
f 29/20/7 30/17/7 31/18/7 
f 31/18/7 32/19/7 29/20/7 
s 8
f 25/20/1 28/17/1 30/18/1 
f 30/18/1 29/19/1 25/20/1 
s 16
f 28/20/4 27/17/4 31/18/4 
f 31/18/4 30/19/4 28/20/4 
s 32
f 27/20/2 26/17/2 32/18/2 
f 32/18/2 31/19/2 27/20/2 
s 64
f 26/20/6 25/17/6 29/18/6 
f 29/18/6 32/19/6 26/20/6 
# 48 faces

