# 3ds Max Wavefront OBJ Exporter v0.99 - (c)2007 guruware
# File Created: 28.05.2022 17:43:18

#
# object Object006
#

v  -1.5000 3.4984 1.5000
v  1.5000 3.4984 1.5000
v  1.5000 3.4984 -1.5000
v  -1.5000 3.4984 -1.5000
v  -1.5000 2.9984 1.5000
v  1.5000 2.9984 1.5000
v  1.5000 2.9984 -1.5000
v  -1.5000 2.9984 -1.5000
v  -1.5000 2.0000 1.5000
v  1.5000 2.0000 1.5000
v  1.5000 3.0000 1.5000
v  -1.5000 3.0000 1.5000
v  1.5000 2.0000 -1.5000
v  1.5000 3.0000 -1.5000
v  -1.5000 2.0000 -1.5000
v  -1.5000 3.0000 -1.5000
v  -1.5000 1.5000 1.5000
v  -1.5000 1.5000 -1.5000
v  1.5000 1.5000 -1.5000
v  1.5000 1.5000 1.5000
v  -1.0090 0.0000 1.0375
v  -1.0090 0.0000 -0.9625
v  0.9910 0.0000 -0.9625
v  0.9910 0.0000 1.0375
v  -1.0090 1.5000 1.0375
v  0.9910 1.5000 1.0375
v  0.9910 1.5000 -0.9625
v  -1.0090 1.5000 -0.9625
# 28 vertices

vn 0.0000 1.0000 -0.0000
vn 0.0000 0.0000 1.0000
vn 1.0000 0.0000 -0.0000
vn 0.0000 0.0000 -1.0000
vn -1.0000 0.0000 -0.0000
vn 0.0000 -1.0000 -0.0000
# 6 vertex normals

vt 0.1355 0.7125 0.0000
vt 0.3489 0.7125 0.0000
vt 0.3489 0.9258 0.0000
vt 0.1355 0.9258 0.0000
vt 0.1353 0.7873 0.0000
vt 0.3480 0.8049 0.0000
vt 0.3450 0.8403 0.0000
vt 0.1324 0.8227 0.0000
vt 0.1638 0.7203 0.0000
vt 0.1462 0.9329 0.0000
vt 0.1108 0.9300 0.0000
vt 0.1284 0.7173 0.0000
vt 0.3689 0.8079 0.0000
vt 0.1563 0.7903 0.0000
vt 0.1592 0.7548 0.0000
vt 0.3718 0.7724 0.0000
vt 0.0999 0.9084 0.0000
vt 0.1175 0.6957 0.0000
vt 0.1529 0.6987 0.0000
vt 0.1353 0.9113 0.0000
vt 0.7234 0.1762 0.0000
vt 0.9340 0.2103 0.0000
vt 0.9226 0.2805 0.0000
vt 0.7120 0.2464 0.0000
vt 0.8387 0.1260 0.0000
vt 0.8045 0.3366 0.0000
vt 0.7343 0.3252 0.0000
vt 0.7685 0.1146 0.0000
vt 0.8469 0.2641 0.0000
vt 0.6363 0.2299 0.0000
vt 0.6477 0.1597 0.0000
vt 0.8583 0.1939 0.0000
vt 0.7501 0.3513 0.0000
vt 0.7843 0.1407 0.0000
vt 0.8545 0.1521 0.0000
vt 0.8203 0.3627 0.0000
vt 0.3834 0.8136 0.0000
vt 0.2326 0.9645 0.0000
vt 0.0817 0.8136 0.0000
vt 0.2326 0.6627 0.0000
vt 0.0943 0.7612 0.0000
vt 0.3069 0.7788 0.0000
vt 0.3040 0.8143 0.0000
vt 0.0914 0.7967 0.0000
vt 0.2177 0.7741 0.0000
vt 0.2001 0.9868 0.0000
vt 0.1647 0.9839 0.0000
vt 0.1823 0.7712 0.0000
vt 0.3290 0.8081 0.0000
vt 0.1163 0.7905 0.0000
vt 0.1193 0.7551 0.0000
vt 0.3319 0.7727 0.0000
vt 0.1738 0.8975 0.0000
vt 0.1914 0.6849 0.0000
vt 0.2268 0.6878 0.0000
vt 0.2092 0.9005 0.0000
vt 0.8216 0.7568 0.0000
vt 0.8216 0.8990 0.0000
vt 0.6794 0.8990 0.0000
vt 0.6794 0.7568 0.0000
vt 0.6996 0.7338 0.0000
vt 0.8419 0.7338 0.0000
vt 0.8419 0.8761 0.0000
vt 0.6996 0.8761 0.0000
vt 0.6542 0.8463 0.0000
vt 0.7961 0.8362 0.0000
vt 0.8037 0.9426 0.0000
vt 0.6618 0.9527 0.0000
vt 0.6667 0.7692 0.0000
vt 0.8086 0.7591 0.0000
vt 0.8162 0.8655 0.0000
vt 0.6743 0.8756 0.0000
vt 0.8045 0.7032 0.0000
vt 0.9464 0.6931 0.0000
vt 0.9540 0.7995 0.0000
vt 0.8121 0.8096 0.0000
vt 0.6542 0.7032 0.0000
vt 0.7961 0.6931 0.0000
vt 0.8037 0.7995 0.0000
vt 0.6618 0.8096 0.0000
# 80 texture coords

o Object006
g Object006
s 4
f 1/1/1 2/2/1 3/3/1 
f 3/3/1 4/4/1 1/1/1 
s 8
f 5/5/2 6/6/2 2/7/2 
f 2/7/2 1/8/2 5/5/2 
s 16
f 6/9/3 7/10/3 3/11/3 
f 3/11/3 2/12/3 6/9/3 
s 32
f 7/13/4 8/14/4 4/15/4 
f 4/15/4 3/16/4 7/13/4 
s 64
f 8/17/5 5/18/5 1/19/5 
f 1/19/5 4/20/5 8/17/5 
s 8
f 9/21/2 10/22/2 11/23/2 
f 11/23/2 12/24/2 9/21/2 
s 16
f 10/25/3 13/26/3 14/27/3 
f 14/27/3 11/28/3 10/25/3 
s 32
f 13/29/4 15/30/4 16/31/4 
f 16/31/4 14/32/4 13/29/4 
s 64
f 15/33/5 9/34/5 12/35/5 
f 12/35/5 16/36/5 15/33/5 
s 2
f 17/37/6 18/38/6 19/39/6 
f 19/39/6 20/40/6 17/37/6 
s 8
f 17/41/2 20/42/2 10/43/2 
f 10/43/2 9/44/2 17/41/2 
s 16
f 20/45/3 19/46/3 13/47/3 
f 13/47/3 10/48/3 20/45/3 
s 32
f 19/49/4 18/50/4 15/51/4 
f 15/51/4 13/52/4 19/49/4 
s 64
f 18/53/5 17/54/5 9/55/5 
f 9/55/5 15/56/5 18/53/5 
s 2
f 21/57/6 22/58/6 23/59/6 
f 23/59/6 24/60/6 21/57/6 
s 4
f 25/61/1 26/62/1 27/63/1 
f 27/63/1 28/64/1 25/61/1 
s 8
f 21/65/2 24/66/2 26/67/2 
f 26/67/2 25/68/2 21/65/2 
s 16
f 24/69/3 23/70/3 27/71/3 
f 27/71/3 26/72/3 24/69/3 
s 32
f 23/73/4 22/74/4 28/75/4 
f 28/75/4 27/76/4 23/73/4 
s 64
f 22/77/5 21/78/5 25/79/5 
f 25/79/5 28/80/5 22/77/5 
# 40 faces

